<svg width="492" height="22" viewBox="0 0 492 22" fill="none" xmlns="http://www.w3.org/2000/svg">
<path d="M5.264 5.28862C7.756 5.28862 9.268 6.54862 9.268 8.64862C9.268 10.7346 7.756 11.9946 5.264 11.9946H2.632V15.0886H1.596V5.28862H5.264ZM5.236 11.0846C7.196 11.0846 8.232 10.1886 8.232 8.64862C8.232 7.08062 7.196 6.18462 5.236 6.18462H2.632V11.0846H5.236ZM13.8058 7.66862C15.7098 7.66862 16.7878 8.62062 16.7878 10.5246V15.0886H15.8358V13.9406C15.3878 14.6966 14.5198 15.1586 13.3018 15.1586C11.6358 15.1586 10.6138 14.2906 10.6138 13.0166C10.6138 11.8826 11.3418 10.9306 13.4558 10.9306H15.7938V10.4826C15.7938 9.22262 15.0798 8.53662 13.7078 8.53662C12.7558 8.53662 11.8598 8.87262 11.2578 9.40462L10.8098 8.66262C11.5518 8.03262 12.6438 7.66862 13.8058 7.66862ZM13.4558 14.3746C14.5758 14.3746 15.4018 13.8426 15.7938 12.8766V11.6726H13.4838C12.0558 11.6726 11.5938 12.2326 11.5938 12.9886C11.5938 13.8426 12.2798 14.3746 13.4558 14.3746ZM21.4616 15.1586C20.2436 15.1586 19.0676 14.7666 18.4656 14.2486L18.9136 13.4646C19.5016 13.9266 20.4956 14.2906 21.5316 14.2906C22.9316 14.2906 23.5056 13.8146 23.5056 13.0866C23.5056 11.1686 18.7316 12.6806 18.7316 9.76862C18.7316 8.56462 19.7676 7.66862 21.6436 7.66862C22.5956 7.66862 23.6316 7.93462 24.2476 8.35462L23.8136 9.15262C23.1696 8.70462 22.3996 8.52262 21.6436 8.52262C20.3136 8.52262 19.7256 9.04062 19.7256 9.74062C19.7256 11.7286 24.4996 10.2306 24.4996 13.0586C24.4996 14.3326 23.3796 15.1586 21.4616 15.1586ZM29.8652 13.9266L30.2152 14.6406C29.8232 14.9906 29.2352 15.1586 28.6612 15.1586C27.2752 15.1586 26.5052 14.3746 26.5052 13.0166V8.56462H25.1892V7.72462H26.5052V6.11462H27.4992V7.72462H29.7392V8.56462H27.4992V12.9606C27.4992 13.8286 27.9472 14.3046 28.7732 14.3046C29.1792 14.3046 29.5852 14.1786 29.8652 13.9266ZM37.3827 17.8046C36.3467 16.1106 35.7587 13.8286 35.7587 11.2526C35.7587 8.67662 36.3467 6.36662 37.3827 4.70062H38.3347C37.2287 6.61862 36.7387 8.76062 36.7387 11.2526C36.7387 13.7446 37.2287 15.8866 38.3347 17.8046H37.3827ZM40.9402 14.1926H46.3302V15.0886H39.4562V14.3746L43.5302 10.3846C44.6362 9.29262 44.8462 8.63462 44.8462 7.96262C44.8462 6.82862 44.0482 6.12862 42.5502 6.12862C41.4022 6.12862 40.5202 6.47862 39.8762 7.22062L39.1622 6.60462C39.9182 5.70862 41.1362 5.20462 42.6342 5.20462C44.6222 5.20462 45.8822 6.21262 45.8822 7.85062C45.8822 8.78862 45.5882 9.62862 44.2722 10.9166L40.9402 14.1926ZM51.4465 15.1726C49.1785 15.1726 47.5405 13.3106 47.5405 10.1886C47.5405 7.06662 49.1785 5.20462 51.4465 5.20462C53.7145 5.20462 55.3665 7.06662 55.3665 10.1886C55.3665 13.3106 53.7145 15.1726 51.4465 15.1726ZM51.4465 14.2486C53.1545 14.2486 54.3305 12.8066 54.3305 10.1886C54.3305 7.57062 53.1545 6.12862 51.4465 6.12862C49.7385 6.12862 48.5625 7.57062 48.5625 10.1886C48.5625 12.8066 49.7385 14.2486 51.4465 14.2486ZM58.0847 14.1926H63.4747V15.0886H56.6007V14.3746L60.6747 10.3846C61.7807 9.29262 61.9907 8.63462 61.9907 7.96262C61.9907 6.82862 61.1927 6.12862 59.6947 6.12862C58.5467 6.12862 57.6647 6.47862 57.0207 7.22062L56.3067 6.60462C57.0627 5.70862 58.2807 5.20462 59.7787 5.20462C61.7667 5.20462 63.0267 6.21262 63.0267 7.85062C63.0267 8.78862 62.7327 9.62862 61.4167 10.9166L58.0847 14.1926ZM72.7416 11.6166V12.5126H70.7816V15.0886H69.7736V12.5126H64.2436V11.7846L69.4376 5.28862H70.5576L65.5456 11.6166H69.8016V9.34862H70.7816V11.6166H72.7416ZM72.9859 16.4886L77.6059 3.30062H78.5159L73.8959 16.4886H72.9859ZM80.0554 14.1926H85.4454V15.0886H78.5714V14.3746L82.6454 10.3846C83.7514 9.29262 83.9614 8.63462 83.9614 7.96262C83.9614 6.82862 83.1634 6.12862 81.6654 6.12862C80.5174 6.12862 79.6354 6.47862 78.9914 7.22062L78.2774 6.60462C79.0334 5.70862 80.2514 5.20462 81.7494 5.20462C83.7374 5.20462 84.9974 6.21262 84.9974 7.85062C84.9974 8.78862 84.7034 9.62862 83.3874 10.9166L80.0554 14.1926ZM90.5617 15.1726C88.2937 15.1726 86.6557 13.3106 86.6557 10.1886C86.6557 7.06662 88.2937 5.20462 90.5617 5.20462C92.8297 5.20462 94.4817 7.06662 94.4817 10.1886C94.4817 13.3106 92.8297 15.1726 90.5617 15.1726ZM90.5617 14.2486C92.2697 14.2486 93.4457 12.8066 93.4457 10.1886C93.4457 7.57062 92.2697 6.12862 90.5617 6.12862C88.8537 6.12862 87.6777 7.57062 87.6777 10.1886C87.6777 12.8066 88.8537 14.2486 90.5617 14.2486ZM97.1999 14.1926H102.59V15.0886H95.7159V14.3746L99.7899 10.3846C100.896 9.29262 101.106 8.63462 101.106 7.96262C101.106 6.82862 100.308 6.12862 98.8099 6.12862C97.6619 6.12862 96.7799 6.47862 96.1359 7.22062L95.4219 6.60462C96.1779 5.70862 97.3959 5.20462 98.8939 5.20462C100.882 5.20462 102.142 6.21262 102.142 7.85062C102.142 8.78862 101.848 9.62862 100.532 10.9166L97.1999 14.1926ZM106.431 9.30662C109.385 9.30662 110.505 10.4686 110.505 12.2046C110.505 13.8706 109.343 15.1726 106.949 15.1726C105.535 15.1726 104.191 14.6826 103.435 13.9126L103.925 13.1146C104.555 13.7726 105.675 14.2486 106.935 14.2486C108.601 14.2486 109.483 13.4366 109.483 12.2466C109.483 10.9866 108.699 10.2026 106.207 10.2026H104.121L104.625 5.28862H109.987V6.18462H105.507L105.171 9.30662H106.431ZM112.569 17.8046H111.617C112.737 15.8866 113.227 13.7446 113.227 11.2526C113.227 8.76062 112.737 6.61862 111.617 4.70062H112.569C113.619 6.36662 114.207 8.67662 114.207 11.2526C114.207 13.8286 113.619 16.1106 112.569 17.8046Z" fill="black"/>
<path d="M264.852 15.1726C261.912 15.1726 259.728 13.0586 259.728 10.1886C259.728 7.31862 261.912 5.20462 264.866 5.20462C266.294 5.20462 267.582 5.68062 268.45 6.63262L267.792 7.29062C266.994 6.47862 266.014 6.12862 264.894 6.12862C262.528 6.12862 260.75 7.86462 260.75 10.1886C260.75 12.5126 262.528 14.2486 264.894 14.2486C266.014 14.2486 266.994 13.8986 267.792 13.0726L268.45 13.7306C267.582 14.6826 266.294 15.1726 264.852 15.1726ZM275.844 7.72462H276.838V15.0886H275.886V13.7446C275.368 14.6406 274.416 15.1586 273.24 15.1586C271.364 15.1586 270.132 14.1086 270.132 11.9946V7.72462H271.126V11.8966C271.126 13.4646 271.938 14.2626 273.338 14.2626C274.878 14.2626 275.844 13.2686 275.844 11.5886V7.72462ZM280.574 9.16662C281.036 8.18662 281.974 7.66862 283.332 7.66862V8.63462C283.248 8.63462 283.164 8.62062 283.094 8.62062C281.554 8.62062 280.616 9.60062 280.616 11.3366V15.0886H279.622V7.72462H280.574V9.16662ZM286.084 9.16662C286.546 8.18662 287.484 7.66862 288.842 7.66862V8.63462C288.758 8.63462 288.674 8.62062 288.604 8.62062C287.064 8.62062 286.126 9.60062 286.126 11.3366V15.0886H285.132V7.72462H286.084V9.16662ZM297 11.4066C297 11.4906 296.986 11.6026 296.986 11.7146H290.826C290.938 13.2546 292.114 14.2766 293.724 14.2766C294.62 14.2766 295.418 13.9546 295.978 13.3106L296.538 13.9546C295.88 14.7386 294.858 15.1586 293.696 15.1586C291.4 15.1586 289.832 13.5906 289.832 11.4066C289.832 9.22262 291.358 7.66862 293.43 7.66862C295.502 7.66862 297 9.19462 297 11.4066ZM293.43 8.52262C292.002 8.52262 290.952 9.53062 290.826 10.9726H296.048C295.922 9.53062 294.872 8.52262 293.43 8.52262ZM302.775 7.66862C304.567 7.66862 305.799 8.70462 305.799 10.8186V15.0886H304.805V10.9166C304.805 9.36262 303.993 8.56462 302.593 8.56462C301.011 8.56462 300.017 9.54462 300.017 11.2246V15.0886H299.023V7.72462H299.975V9.08262C300.507 8.18662 301.501 7.66862 302.775 7.66862ZM312.025 13.9266L312.375 14.6406C311.983 14.9906 311.395 15.1586 310.821 15.1586C309.435 15.1586 308.665 14.3746 308.665 13.0166V8.56462H307.349V7.72462H308.665V6.11462H309.659V7.72462H311.899V8.56462H309.659V12.9606C309.659 13.8286 310.107 14.3046 310.933 14.3046C311.339 14.3046 311.745 14.1786 312.025 13.9266ZM319.543 17.8046C318.507 16.1106 317.919 13.8286 317.919 11.2526C317.919 8.67662 318.507 6.36662 319.543 4.70062H320.495C319.389 6.61862 318.899 8.76062 318.899 11.2526C318.899 13.7446 319.389 15.8866 320.495 17.8046H319.543ZM323.1 14.1926H328.49V15.0886H321.616V14.3746L325.69 10.3846C326.796 9.29262 327.006 8.63462 327.006 7.96262C327.006 6.82862 326.208 6.12862 324.71 6.12862C323.562 6.12862 322.68 6.47862 322.036 7.22062L321.322 6.60462C322.078 5.70862 323.296 5.20462 324.794 5.20462C326.782 5.20462 328.042 6.21262 328.042 7.85062C328.042 8.78862 327.748 9.62862 326.432 10.9166L323.1 14.1926ZM333.607 15.1726C331.339 15.1726 329.701 13.3106 329.701 10.1886C329.701 7.06662 331.339 5.20462 333.607 5.20462C335.875 5.20462 337.527 7.06662 337.527 10.1886C337.527 13.3106 335.875 15.1726 333.607 15.1726ZM333.607 14.2486C335.315 14.2486 336.491 12.8066 336.491 10.1886C336.491 7.57062 335.315 6.12862 333.607 6.12862C331.899 6.12862 330.723 7.57062 330.723 10.1886C330.723 12.8066 331.899 14.2486 333.607 14.2486ZM340.245 14.1926H345.635V15.0886H338.761V14.3746L342.835 10.3846C343.941 9.29262 344.151 8.63462 344.151 7.96262C344.151 6.82862 343.353 6.12862 341.855 6.12862C340.707 6.12862 339.825 6.47862 339.181 7.22062L338.467 6.60462C339.223 5.70862 340.441 5.20462 341.939 5.20462C343.927 5.20462 345.187 6.21262 345.187 7.85062C345.187 8.78862 344.893 9.62862 343.577 10.9166L340.245 14.1926ZM349.476 9.30662C352.43 9.30662 353.55 10.4686 353.55 12.2046C353.55 13.8706 352.388 15.1726 349.994 15.1726C348.58 15.1726 347.236 14.6826 346.48 13.9126L346.97 13.1146C347.6 13.7726 348.72 14.2486 349.98 14.2486C351.646 14.2486 352.528 13.4366 352.528 12.2466C352.528 10.9866 351.744 10.2026 349.252 10.2026H347.166L347.67 5.28862H353.032V6.18462H348.552L348.216 9.30662H349.476ZM353.752 16.4886L358.372 3.30062H359.282L354.662 16.4886H353.752ZM360.821 14.1926H366.211V15.0886H359.337V14.3746L363.411 10.3846C364.517 9.29262 364.727 8.63462 364.727 7.96262C364.727 6.82862 363.929 6.12862 362.431 6.12862C361.283 6.12862 360.401 6.47862 359.757 7.22062L359.043 6.60462C359.799 5.70862 361.017 5.20462 362.515 5.20462C364.503 5.20462 365.763 6.21262 365.763 7.85062C365.763 8.78862 365.469 9.62862 364.153 10.9166L360.821 14.1926ZM371.327 15.1726C369.059 15.1726 367.421 13.3106 367.421 10.1886C367.421 7.06662 369.059 5.20462 371.327 5.20462C373.595 5.20462 375.247 7.06662 375.247 10.1886C375.247 13.3106 373.595 15.1726 371.327 15.1726ZM371.327 14.2486C373.035 14.2486 374.211 12.8066 374.211 10.1886C374.211 7.57062 373.035 6.12862 371.327 6.12862C369.619 6.12862 368.443 7.57062 368.443 10.1886C368.443 12.8066 369.619 14.2486 371.327 14.2486ZM377.966 14.1926H383.356V15.0886H376.482V14.3746L380.556 10.3846C381.662 9.29262 381.872 8.63462 381.872 7.96262C381.872 6.82862 381.074 6.12862 379.576 6.12862C378.428 6.12862 377.546 6.47862 376.902 7.22062L376.188 6.60462C376.944 5.70862 378.162 5.20462 379.66 5.20462C381.648 5.20462 382.908 6.21262 382.908 7.85062C382.908 8.78862 382.614 9.62862 381.298 10.9166L377.966 14.1926ZM388.626 9.22262C390.572 9.22262 391.93 10.3706 391.93 12.1626C391.93 13.9966 390.488 15.1726 388.584 15.1726C385.98 15.1726 384.566 13.3666 384.566 10.2726C384.566 6.94062 386.386 5.20462 389.046 5.20462C389.928 5.20462 390.754 5.35862 391.37 5.73662L390.964 6.54862C390.46 6.21262 389.788 6.08662 389.06 6.08662C386.946 6.08662 385.588 7.44462 385.588 10.1046C385.588 10.3286 385.602 10.6086 385.63 10.9026C386.12 9.82462 387.268 9.22262 388.626 9.22262ZM388.542 14.3186C389.956 14.3186 390.936 13.4926 390.936 12.1906C390.936 10.9026 389.984 10.0766 388.472 10.0766C386.974 10.0766 385.952 11.0006 385.952 12.2186C385.952 13.2966 386.848 14.3186 388.542 14.3186ZM393.881 17.8046H392.929C394.049 15.8866 394.539 13.7446 394.539 11.2526C394.539 8.76062 394.049 6.61862 392.929 4.70062H393.881C394.931 6.36662 395.519 8.67662 395.519 11.2526C395.519 13.8286 394.931 16.1106 393.881 17.8046Z" fill="black"/>
<path d="M406 10.0886H492" stroke="#0280FB" stroke-width="3"/>
<path d="M127 10.0837H213" stroke="#C3C3C3" stroke-width="3" stroke-linecap="round" stroke-linejoin="round"/>
</svg>
