<svg width="492" height="21" viewBox="0 0 492 21" fill="none" xmlns="http://www.w3.org/2000/svg">
<path d="M5.264 5.2C7.756 5.2 9.268 6.46 9.268 8.56C9.268 10.646 7.756 11.906 5.264 11.906H2.632V15H1.596V5.2H5.264ZM5.236 10.996C7.196 10.996 8.232 10.1 8.232 8.56C8.232 6.992 7.196 6.096 5.236 6.096H2.632V10.996H5.236ZM13.8058 7.58C15.7098 7.58 16.7878 8.532 16.7878 10.436V15H15.8358V13.852C15.3878 14.608 14.5198 15.07 13.3018 15.07C11.6358 15.07 10.6138 14.202 10.6138 12.928C10.6138 11.794 11.3418 10.842 13.4558 10.842H15.7938V10.394C15.7938 9.134 15.0798 8.448 13.7078 8.448C12.7558 8.448 11.8598 8.784 11.2578 9.316L10.8098 8.574C11.5518 7.944 12.6438 7.58 13.8058 7.58ZM13.4558 14.286C14.5758 14.286 15.4018 13.754 15.7938 12.788V11.584H13.4838C12.0558 11.584 11.5938 12.144 11.5938 12.9C11.5938 13.754 12.2798 14.286 13.4558 14.286ZM21.4616 15.07C20.2436 15.07 19.0676 14.678 18.4656 14.16L18.9136 13.376C19.5016 13.838 20.4956 14.202 21.5316 14.202C22.9316 14.202 23.5056 13.726 23.5056 12.998C23.5056 11.08 18.7316 12.592 18.7316 9.68C18.7316 8.476 19.7676 7.58 21.6436 7.58C22.5956 7.58 23.6316 7.846 24.2476 8.266L23.8136 9.064C23.1696 8.616 22.3996 8.434 21.6436 8.434C20.3136 8.434 19.7256 8.952 19.7256 9.652C19.7256 11.64 24.4996 10.142 24.4996 12.97C24.4996 14.244 23.3796 15.07 21.4616 15.07ZM29.8652 13.838L30.2152 14.552C29.8232 14.902 29.2352 15.07 28.6612 15.07C27.2752 15.07 26.5052 14.286 26.5052 12.928V8.476H25.1892V7.636H26.5052V6.026H27.4992V7.636H29.7392V8.476H27.4992V12.872C27.4992 13.74 27.9472 14.216 28.7732 14.216C29.1792 14.216 29.5852 14.09 29.8652 13.838ZM37.3827 17.716C36.3467 16.022 35.7587 13.74 35.7587 11.164C35.7587 8.588 36.3467 6.278 37.3827 4.612H38.3347C37.2287 6.53 36.7387 8.672 36.7387 11.164C36.7387 13.656 37.2287 15.798 38.3347 17.716H37.3827ZM40.9402 14.104H46.3302V15H39.4562V14.286L43.5302 10.296C44.6362 9.204 44.8462 8.546 44.8462 7.874C44.8462 6.74 44.0482 6.04 42.5502 6.04C41.4022 6.04 40.5202 6.39 39.8762 7.132L39.1622 6.516C39.9182 5.62 41.1362 5.116 42.6342 5.116C44.6222 5.116 45.8822 6.124 45.8822 7.762C45.8822 8.7 45.5882 9.54 44.2722 10.828L40.9402 14.104ZM51.4465 15.084C49.1785 15.084 47.5405 13.222 47.5405 10.1C47.5405 6.978 49.1785 5.116 51.4465 5.116C53.7145 5.116 55.3665 6.978 55.3665 10.1C55.3665 13.222 53.7145 15.084 51.4465 15.084ZM51.4465 14.16C53.1545 14.16 54.3305 12.718 54.3305 10.1C54.3305 7.482 53.1545 6.04 51.4465 6.04C49.7385 6.04 48.5625 7.482 48.5625 10.1C48.5625 12.718 49.7385 14.16 51.4465 14.16ZM58.0847 14.104H63.4747V15H56.6007V14.286L60.6747 10.296C61.7807 9.204 61.9907 8.546 61.9907 7.874C61.9907 6.74 61.1927 6.04 59.6947 6.04C58.5467 6.04 57.6647 6.39 57.0207 7.132L56.3067 6.516C57.0627 5.62 58.2807 5.116 59.7787 5.116C61.7667 5.116 63.0267 6.124 63.0267 7.762C63.0267 8.7 62.7327 9.54 61.4167 10.828L58.0847 14.104ZM72.7416 11.528V12.424H70.7816V15H69.7736V12.424H64.2436V11.696L69.4376 5.2H70.5576L65.5456 11.528H69.8016V9.26H70.7816V11.528H72.7416ZM72.9859 16.4L77.6059 3.212H78.5159L73.8959 16.4H72.9859ZM80.0554 14.104H85.4454V15H78.5714V14.286L82.6454 10.296C83.7514 9.204 83.9614 8.546 83.9614 7.874C83.9614 6.74 83.1634 6.04 81.6654 6.04C80.5174 6.04 79.6354 6.39 78.9914 7.132L78.2774 6.516C79.0334 5.62 80.2514 5.116 81.7494 5.116C83.7374 5.116 84.9974 6.124 84.9974 7.762C84.9974 8.7 84.7034 9.54 83.3874 10.828L80.0554 14.104ZM90.5617 15.084C88.2937 15.084 86.6557 13.222 86.6557 10.1C86.6557 6.978 88.2937 5.116 90.5617 5.116C92.8297 5.116 94.4817 6.978 94.4817 10.1C94.4817 13.222 92.8297 15.084 90.5617 15.084ZM90.5617 14.16C92.2697 14.16 93.4457 12.718 93.4457 10.1C93.4457 7.482 92.2697 6.04 90.5617 6.04C88.8537 6.04 87.6777 7.482 87.6777 10.1C87.6777 12.718 88.8537 14.16 90.5617 14.16ZM97.1999 14.104H102.59V15H95.7159V14.286L99.7899 10.296C100.896 9.204 101.106 8.546 101.106 7.874C101.106 6.74 100.308 6.04 98.8099 6.04C97.6619 6.04 96.7799 6.39 96.1359 7.132L95.4219 6.516C96.1779 5.62 97.3959 5.116 98.8939 5.116C100.882 5.116 102.142 6.124 102.142 7.762C102.142 8.7 101.848 9.54 100.532 10.828L97.1999 14.104ZM106.431 9.218C109.385 9.218 110.505 10.38 110.505 12.116C110.505 13.782 109.343 15.084 106.949 15.084C105.535 15.084 104.191 14.594 103.435 13.824L103.925 13.026C104.555 13.684 105.675 14.16 106.935 14.16C108.601 14.16 109.483 13.348 109.483 12.158C109.483 10.898 108.699 10.114 106.207 10.114H104.121L104.625 5.2H109.987V6.096H105.507L105.171 9.218H106.431ZM112.569 17.716H111.617C112.737 15.798 113.227 13.656 113.227 11.164C113.227 8.672 112.737 6.53 111.617 4.612H112.569C113.619 6.278 114.207 8.588 114.207 11.164C114.207 13.74 113.619 16.022 112.569 17.716Z" fill="black"/>
<path d="M264.852 15.084C261.912 15.084 259.728 12.97 259.728 10.1C259.728 7.23 261.912 5.116 264.866 5.116C266.294 5.116 267.582 5.592 268.45 6.544L267.792 7.202C266.994 6.39 266.014 6.04 264.894 6.04C262.528 6.04 260.75 7.776 260.75 10.1C260.75 12.424 262.528 14.16 264.894 14.16C266.014 14.16 266.994 13.81 267.792 12.984L268.45 13.642C267.582 14.594 266.294 15.084 264.852 15.084ZM275.844 7.636H276.838V15H275.886V13.656C275.368 14.552 274.416 15.07 273.24 15.07C271.364 15.07 270.132 14.02 270.132 11.906V7.636H271.126V11.808C271.126 13.376 271.938 14.174 273.338 14.174C274.878 14.174 275.844 13.18 275.844 11.5V7.636ZM280.574 9.078C281.036 8.098 281.974 7.58 283.332 7.58V8.546C283.248 8.546 283.164 8.532 283.094 8.532C281.554 8.532 280.616 9.512 280.616 11.248V15H279.622V7.636H280.574V9.078ZM286.084 9.078C286.546 8.098 287.484 7.58 288.842 7.58V8.546C288.758 8.546 288.674 8.532 288.604 8.532C287.064 8.532 286.126 9.512 286.126 11.248V15H285.132V7.636H286.084V9.078ZM297 11.318C297 11.402 296.986 11.514 296.986 11.626H290.826C290.938 13.166 292.114 14.188 293.724 14.188C294.62 14.188 295.418 13.866 295.978 13.222L296.538 13.866C295.88 14.65 294.858 15.07 293.696 15.07C291.4 15.07 289.832 13.502 289.832 11.318C289.832 9.134 291.358 7.58 293.43 7.58C295.502 7.58 297 9.106 297 11.318ZM293.43 8.434C292.002 8.434 290.952 9.442 290.826 10.884H296.048C295.922 9.442 294.872 8.434 293.43 8.434ZM302.775 7.58C304.567 7.58 305.799 8.616 305.799 10.73V15H304.805V10.828C304.805 9.274 303.993 8.476 302.593 8.476C301.011 8.476 300.017 9.456 300.017 11.136V15H299.023V7.636H299.975V8.994C300.507 8.098 301.501 7.58 302.775 7.58ZM312.025 13.838L312.375 14.552C311.983 14.902 311.395 15.07 310.821 15.07C309.435 15.07 308.665 14.286 308.665 12.928V8.476H307.349V7.636H308.665V6.026H309.659V7.636H311.899V8.476H309.659V12.872C309.659 13.74 310.107 14.216 310.933 14.216C311.339 14.216 311.745 14.09 312.025 13.838ZM319.543 17.716C318.507 16.022 317.919 13.74 317.919 11.164C317.919 8.588 318.507 6.278 319.543 4.612H320.495C319.389 6.53 318.899 8.672 318.899 11.164C318.899 13.656 319.389 15.798 320.495 17.716H319.543ZM323.1 14.104H328.49V15H321.616V14.286L325.69 10.296C326.796 9.204 327.006 8.546 327.006 7.874C327.006 6.74 326.208 6.04 324.71 6.04C323.562 6.04 322.68 6.39 322.036 7.132L321.322 6.516C322.078 5.62 323.296 5.116 324.794 5.116C326.782 5.116 328.042 6.124 328.042 7.762C328.042 8.7 327.748 9.54 326.432 10.828L323.1 14.104ZM333.607 15.084C331.339 15.084 329.701 13.222 329.701 10.1C329.701 6.978 331.339 5.116 333.607 5.116C335.875 5.116 337.527 6.978 337.527 10.1C337.527 13.222 335.875 15.084 333.607 15.084ZM333.607 14.16C335.315 14.16 336.491 12.718 336.491 10.1C336.491 7.482 335.315 6.04 333.607 6.04C331.899 6.04 330.723 7.482 330.723 10.1C330.723 12.718 331.899 14.16 333.607 14.16ZM340.245 14.104H345.635V15H338.761V14.286L342.835 10.296C343.941 9.204 344.151 8.546 344.151 7.874C344.151 6.74 343.353 6.04 341.855 6.04C340.707 6.04 339.825 6.39 339.181 7.132L338.467 6.516C339.223 5.62 340.441 5.116 341.939 5.116C343.927 5.116 345.187 6.124 345.187 7.762C345.187 8.7 344.893 9.54 343.577 10.828L340.245 14.104ZM349.476 9.218C352.43 9.218 353.55 10.38 353.55 12.116C353.55 13.782 352.388 15.084 349.994 15.084C348.58 15.084 347.236 14.594 346.48 13.824L346.97 13.026C347.6 13.684 348.72 14.16 349.98 14.16C351.646 14.16 352.528 13.348 352.528 12.158C352.528 10.898 351.744 10.114 349.252 10.114H347.166L347.67 5.2H353.032V6.096H348.552L348.216 9.218H349.476ZM353.752 16.4L358.372 3.212H359.282L354.662 16.4H353.752ZM360.821 14.104H366.211V15H359.337V14.286L363.411 10.296C364.517 9.204 364.727 8.546 364.727 7.874C364.727 6.74 363.929 6.04 362.431 6.04C361.283 6.04 360.401 6.39 359.757 7.132L359.043 6.516C359.799 5.62 361.017 5.116 362.515 5.116C364.503 5.116 365.763 6.124 365.763 7.762C365.763 8.7 365.469 9.54 364.153 10.828L360.821 14.104ZM371.327 15.084C369.059 15.084 367.421 13.222 367.421 10.1C367.421 6.978 369.059 5.116 371.327 5.116C373.595 5.116 375.247 6.978 375.247 10.1C375.247 13.222 373.595 15.084 371.327 15.084ZM371.327 14.16C373.035 14.16 374.211 12.718 374.211 10.1C374.211 7.482 373.035 6.04 371.327 6.04C369.619 6.04 368.443 7.482 368.443 10.1C368.443 12.718 369.619 14.16 371.327 14.16ZM377.966 14.104H383.356V15H376.482V14.286L380.556 10.296C381.662 9.204 381.872 8.546 381.872 7.874C381.872 6.74 381.074 6.04 379.576 6.04C378.428 6.04 377.546 6.39 376.902 7.132L376.188 6.516C376.944 5.62 378.162 5.116 379.66 5.116C381.648 5.116 382.908 6.124 382.908 7.762C382.908 8.7 382.614 9.54 381.298 10.828L377.966 14.104ZM388.626 9.134C390.572 9.134 391.93 10.282 391.93 12.074C391.93 13.908 390.488 15.084 388.584 15.084C385.98 15.084 384.566 13.278 384.566 10.184C384.566 6.852 386.386 5.116 389.046 5.116C389.928 5.116 390.754 5.27 391.37 5.648L390.964 6.46C390.46 6.124 389.788 5.998 389.06 5.998C386.946 5.998 385.588 7.356 385.588 10.016C385.588 10.24 385.602 10.52 385.63 10.814C386.12 9.736 387.268 9.134 388.626 9.134ZM388.542 14.23C389.956 14.23 390.936 13.404 390.936 12.102C390.936 10.814 389.984 9.988 388.472 9.988C386.974 9.988 385.952 10.912 385.952 12.13C385.952 13.208 386.848 14.23 388.542 14.23ZM393.881 17.716H392.929C394.049 15.798 394.539 13.656 394.539 11.164C394.539 8.672 394.049 6.53 392.929 4.612H393.881C394.931 6.278 395.519 8.588 395.519 11.164C395.519 13.74 394.931 16.022 393.881 17.716Z" fill="black"/>
<path d="M406 10H492" stroke="#535353" stroke-width="3"/>
<path d="M127 9.99512H213" stroke="#C3C3C3" stroke-width="3" stroke-linecap="round" stroke-linejoin="round"/>
</svg>
