<svg width="34" height="34" viewBox="0 0 34 34" fill="none" xmlns="http://www.w3.org/2000/svg">
<circle cx="17" cy="17" r="17" fill="#D9D9D9"/>
<path fill-rule="evenodd" clip-rule="evenodd" d="M25 18.0123V23.0123C25 23.8079 24.6839 24.571 24.1213 25.1336C23.5587 25.6962 22.7957 26.0123 22 26.0123H12C11.2044 26.0123 10.4413 25.6962 9.87868 25.1336C9.31608 24.571 9 23.8079 9 23.0123V18.0123H25ZM17 7.01229C18.33 7.01229 19.584 7.33629 20.687 7.91129L21.293 7.30529C21.3853 7.20978 21.4956 7.1336 21.6176 7.08119C21.7396 7.02878 21.8708 7.00119 22.0036 7.00004C22.1364 6.99888 22.2681 7.02419 22.391 7.07447C22.5139 7.12475 22.6255 7.199 22.7194 7.29289C22.8133 7.38679 22.8875 7.49844 22.9378 7.62133C22.9881 7.74423 23.0134 7.87591 23.0123 8.00869C23.0111 8.14147 22.9835 8.27269 22.9311 8.39469C22.8787 8.5167 22.8025 8.62704 22.707 8.71929L22.357 9.06929C23.1901 9.81877 23.8561 10.7353 24.3115 11.7593C24.7668 12.7832 25.0015 13.8916 25 15.0123V16.0123H9V15.0123C8.99882 13.8917 9.23365 12.7835 9.6892 11.7597C10.1448 10.7359 10.8108 9.81957 11.644 9.07029L11.293 8.72029C11.1054 8.53278 10.9999 8.27841 10.9998 8.01314C10.9997 7.74787 11.105 7.49343 11.2925 7.30579C11.48 7.11815 11.7344 7.01268 11.9997 7.01259C12.2649 7.01249 12.5194 7.11778 12.707 7.30529L13.313 7.91129C14.4521 7.32023 15.7167 7.01189 17 7.01229ZM14 11.0123C13.7348 11.0123 13.4804 11.1176 13.2929 11.3052C13.1054 11.4927 13 11.7471 13 12.0123C13 12.2775 13.1054 12.5319 13.2929 12.7194C13.4804 12.9069 13.7348 13.0123 14 13.0123C14.2652 13.0123 14.5196 12.9069 14.7071 12.7194C14.8946 12.5319 15 12.2775 15 12.0123C15 11.7471 14.8946 11.4927 14.7071 11.3052C14.5196 11.1176 14.2652 11.0123 14 11.0123ZM20 11.0123C19.7348 11.0123 19.4804 11.1176 19.2929 11.3052C19.1054 11.4927 19 11.7471 19 12.0123C19 12.2775 19.1054 12.5319 19.2929 12.7194C19.4804 12.9069 19.7348 13.0123 20 13.0123C20.2652 13.0123 20.5196 12.9069 20.7071 12.7194C20.8946 12.5319 21 12.2775 21 12.0123C21 11.7471 20.8946 11.4927 20.7071 11.3052C20.5196 11.1176 20.2652 11.0123 20 11.0123Z" fill="#8B8B8B"/>
</svg>
