<svg width="34" height="34" viewBox="0 0 34 34" fill="none" xmlns="http://www.w3.org/2000/svg">
<circle cx="17" cy="17" r="17" fill="#D9D9D9"/>
<g clip-path="url(#clip0_948_207)">
<path d="M16.9731 5.5C14.4533 5.5 12.1233 6.31422 10.2305 7.6945V26.3055C12.1233 27.6858 14.4533 28.5 16.9731 28.5C19.4928 28.5 21.8599 27.6729 23.7607 26.2723V7.72767C21.8599 6.32712 19.513 5.5 16.9731 5.5ZM21.9706 17.3524C21.3559 17.8457 20.7234 18.3267 20.12 18.8344C19.972 18.9591 19.6105 19.2214 19.5225 19.3599C19.3675 19.6038 19.6439 20.0307 19.6889 20.2951L17.3466 19.961C17.2127 19.9603 17.1578 20.0473 17.1542 20.1806C17.1468 20.4484 17.1443 20.8618 17.1471 21.0249C17.1572 21.5826 17.1591 22.1355 17.1591 22.6948H16.7717L16.8857 20.1624C16.8876 20.0371 16.7644 19.9597 16.6455 19.9607L14.3032 20.2951C14.3479 20.0307 14.6246 19.6038 14.4696 19.3599C14.3991 19.2487 14.1708 19.0807 14.0593 18.9846C13.3928 18.4102 12.6494 17.9111 12.0215 17.2968C12.1613 17.272 12.6399 17.0785 12.6586 16.9384L12.2084 15.2725L13.6771 15.5661C13.8886 15.5293 13.945 15.0971 13.9998 14.9113C14.0145 14.8625 13.9722 14.8057 14.0593 14.8229L15.2172 16.0987C15.3698 16.1872 15.5151 16.1426 15.5356 15.9623L15.0512 13.2856C15.1103 13.2233 15.8675 13.8072 16.0382 13.6183L17.0328 11.9361L17.9319 13.6032C18.0998 13.8342 18.8757 13.2217 18.9406 13.2856L18.4562 15.9623C18.4767 16.1426 18.6222 16.1872 18.7745 16.0987L19.9325 14.8229C20.0198 14.8057 19.9773 14.8625 19.992 14.9113C20.0471 15.0971 20.1035 15.5293 20.3149 15.5661L21.7833 15.2725L21.3335 16.9384C21.3531 17.0871 21.783 17.2271 21.9175 17.2932C21.9494 17.3088 21.9843 17.2704 21.9706 17.3524Z" fill="#8B8B8B"/>
<path d="M28.4469 16.9998C28.4469 19.9047 27.3723 22.5577 25.5996 24.5821V9.41748C27.3723 11.4418 28.4469 14.0949 28.4469 16.9998Z" fill="#8B8B8B"/>
<path d="M28.5002 16.4594V17.5405C28.4328 17.824 28.442 18.1523 28.404 18.4576C28.1169 20.744 27.1216 22.9259 25.5996 24.6385V9.36084C27.2102 11.1726 28.2294 13.5133 28.4546 15.9422C28.4696 16.101 28.4929 16.3181 28.5002 16.4594Z" fill="#8B8B8B"/>
<path d="M8.39207 9.38232V24.6597C6.87097 22.9474 5.86957 20.7664 5.58797 18.48C5.52821 17.9935 5.4991 17.507 5.50002 17.023C5.50584 14.2059 6.52655 11.4742 8.39207 9.38232Z" fill="#8B8B8B"/>
</g>
<defs>
<clipPath id="clip0_948_207">
<rect width="23" height="23" fill="white" transform="translate(5.5 5.5)"/>
</clipPath>
</defs>
</svg>
