<svg width="34" height="34" viewBox="0 0 34 34" fill="none" xmlns="http://www.w3.org/2000/svg">
<circle cx="17" cy="17" r="17" fill="#D9D9D9"/>
<g clip-path="url(#clip0_948_190)">
<path d="M17.666 5.25L18.7373 5.34766C23.8504 5.98228 28.0671 10.0559 28.8486 15.1543L29 16.541V17.459L28.9023 18.4863C28.2743 23.618 24.1636 27.8345 19.0576 28.6045L17.7119 28.75H16.7939L15.7676 28.6523C10.6331 28.0245 6.42332 23.9126 5.65039 18.8057L5.50488 17.459C5.5159 17.1548 5.48958 16.8452 5.50488 16.541C5.81577 10.3576 10.6631 5.54803 16.8398 5.25H17.666ZM17.2783 23.2871L16.0186 22.4609L16.4219 23.8906L15.2539 24.8125H16.6934C16.9503 25.2004 17.0309 25.713 17.1777 26.1523C17.2004 26.219 17.162 26.3195 17.2812 26.2822C17.3553 26.2596 17.5967 24.9549 17.8096 24.8125H19.25L18.083 23.8906L18.4854 22.4609L17.2783 23.2871ZM11.8398 21.2783L10.3213 21.0527C10.295 21.1537 10.3611 21.1711 10.4082 21.2305C10.5339 21.3885 11.3568 22.1261 11.3623 22.1982L10.7314 23.5215L12.0547 22.8916C12.1275 22.8971 12.8655 23.7209 13.0234 23.8457C13.0826 23.8922 13.0994 23.9589 13.2002 23.9326L12.9746 22.4131L14.3164 21.7002L12.8018 21.4512L12.5527 19.9365L11.8398 21.2783ZM21.7021 21.4512L20.1885 21.7002L21.5293 22.4141L21.3037 23.9326C21.4053 23.9589 21.4221 23.8922 21.4814 23.8457C21.6388 23.7207 22.3764 22.8971 22.4492 22.8916L23.7715 23.5215L23.1426 22.1982C23.1481 22.1248 23.9708 21.3883 24.0957 21.2305C24.1428 21.1711 24.2095 21.1537 24.1826 21.0527L22.665 21.2783L21.9512 19.9365L21.7021 21.4512ZM9.44141 16.4414C9.05282 16.6813 8.55096 16.7936 8.11035 16.9355C8.03455 16.9594 7.94564 16.8918 7.97168 17.0283L9.44141 17.5586V18.999L10.3643 17.8311L11.792 18.2334L10.9658 16.9727L11.792 15.7666L10.3643 16.1689L9.44141 15.001V16.4414ZM24.1416 16.1689L22.7129 15.7666L23.5391 16.9727L22.7129 18.2334L24.1416 17.8301L25.0635 18.998V17.5576C25.449 17.2897 25.9701 17.2384 26.4033 17.0732C26.4657 17.0489 26.5695 17.0924 26.5322 16.9707C26.509 16.8967 25.2036 16.6489 25.0635 16.4414V15.001L24.1416 16.1689ZM13.2002 10.0674C13.0994 10.0411 13.0826 10.1078 13.0234 10.1543C12.8655 10.2791 12.1275 11.1029 12.0547 11.1084L10.7314 10.4785L11.3623 11.8018C11.3568 11.8739 10.5339 12.6116 10.4082 12.7695C10.3611 12.8289 10.295 12.8463 10.3213 12.9473L11.8398 12.7217L12.5527 14.0635L12.8018 12.5488L14.3164 12.2998L12.9746 11.5869L13.2002 10.0674ZM21.3037 10.0674L21.5293 11.5859L20.1885 12.2998L21.7021 12.5488L22.0088 14.0635L22.665 12.7217L24.1826 12.9473C24.2095 12.8463 24.1428 12.8289 24.0957 12.7695C23.9708 12.6117 23.1481 11.8752 23.1426 11.8018L23.7715 10.4785L22.4492 11.1084C22.3764 11.1029 21.6389 10.2793 21.4814 10.1543C21.4221 10.1078 21.4053 10.0411 21.3037 10.0674ZM17.2227 7.71777C17.147 7.74388 16.9066 9.04633 16.6934 9.1875H15.2539L16.4219 10.1094L16.0186 11.5391L17.2783 10.7129L18.4854 11.5391L18.083 10.1094L19.25 9.1875H17.8096C17.5527 8.79966 17.4729 8.28689 17.3262 7.84766C17.3041 7.78095 17.3414 7.68044 17.2227 7.71777Z" fill="#8B8B8B"/>
</g>
<defs>
<clipPath id="clip0_948_190">
<rect width="24" height="24" fill="white" transform="translate(5 5)"/>
</clipPath>
</defs>
</svg>
