<svg width="34" height="34" viewBox="0 0 34 34" fill="none" xmlns="http://www.w3.org/2000/svg">
<circle cx="17" cy="17" r="17" fill="#D9D9D9"/>
<path d="M28.4213 15.5959C28.5262 16.5385 28.5262 17.4812 28.4213 18.4245H19.0259C18.8192 18.4245 18.4547 18.7985 18.4632 19.033L18.458 28.3418L18.383 28.4134C17.4688 28.5333 16.5514 28.5216 15.6333 28.4219V19.035C15.6333 18.8539 15.2447 18.4252 15.0719 18.4252H5.57873C5.47376 17.4825 5.47376 16.5399 5.57873 15.5965H15.0719C15.2447 15.5965 15.6333 15.1679 15.6333 14.9868V5.59917C16.1191 5.57181 16.6394 5.49624 17.1239 5.50015C17.2276 5.5008 17.3202 5.5464 17.4154 5.55031C17.596 5.55747 18.4045 5.52099 18.4573 5.6793L18.4625 14.9881C18.4534 15.2226 18.8179 15.5965 19.0253 15.5965H28.4206L28.4213 15.5959Z" fill="#8B8B8B"/>
<path d="M14.1688 5.89185V13.1088L9.38672 8.40324C10.7488 7.20911 12.3881 6.28989 14.1688 5.89185Z" fill="#8B8B8B"/>
<path d="M14.1694 20.9602V28.1289C12.4095 27.7354 10.7951 26.8325 9.43555 25.6664L14.1694 20.9609V20.9602Z" fill="#8B8B8B"/>
<path d="M13.0955 19.8875L8.38571 24.6164C7.18986 23.2718 6.30047 21.6412 5.87207 19.8875H13.0955Z" fill="#8B8B8B"/>
<path d="M28.1283 19.8875C27.6979 21.6425 26.8105 23.2699 25.6146 24.6164L20.9531 19.8875H28.1283Z" fill="#8B8B8B"/>
<path d="M13.0955 14.1336H5.87207C6.29525 12.4013 7.16834 10.789 8.34203 9.4541L13.0955 14.1336Z" fill="#8B8B8B"/>
<path d="M28.1283 14.1339H20.9531L25.6629 9.45312C26.83 10.7945 27.7038 12.4003 28.1276 14.1339H28.1283Z" fill="#8B8B8B"/>
<path d="M19.9287 13.0606V5.89185C21.6612 6.34852 23.2789 7.21106 24.6137 8.40324L19.9287 13.0606Z" fill="#8B8B8B"/>
<path d="M19.9287 28.1289V20.9602L24.5635 25.6605C23.2424 26.8338 21.6384 27.6748 19.9287 28.1283V28.1289Z" fill="#8B8B8B"/>
</svg>
