<svg width="34" height="34" viewBox="0 0 34 34" fill="none" xmlns="http://www.w3.org/2000/svg">
<circle cx="17" cy="17" r="17" fill="#D9D9D9"/>
<path d="M23.1643 25.1976C22.0658 26.253 20.8665 26.0864 19.712 25.5864C18.4903 25.0754 17.3695 25.0531 16.0805 25.5864C14.4665 26.2752 13.6146 26.0752 12.6507 25.1976C7.18095 19.6094 7.98796 11.0994 14.1975 10.7883C15.7106 10.8661 16.7642 11.6104 17.6497 11.6771C18.9723 11.4104 20.2388 10.6439 21.6511 10.7438C23.3436 10.8772 24.6214 11.5437 25.462 12.7436C21.9649 14.8211 22.7944 19.3872 26 20.6648C25.3611 22.3313 24.5317 23.9866 23.153 25.2087L23.1643 25.1976ZM17.5376 10.7216C17.3695 8.24416 19.3982 6.19997 21.7296 6C22.0546 8.8663 19.1068 10.9994 17.5376 10.7216Z" fill="#8B8B8B"/>
</svg>
