<svg width="34" height="34" viewBox="0 0 34 34" fill="none" xmlns="http://www.w3.org/2000/svg">
<circle cx="17" cy="17" r="17" fill="#D9D9D9"/>
<path d="M25.4411 16.55C24.8028 18.6644 23.648 20.5866 22.081 22.143C20.514 23.6995 18.584 24.8413 16.4654 25.4654L8.5346 17.5346C9.15855 15.4158 10.3003 13.4857 11.8568 11.9185C13.4133 10.3513 15.3355 9.19643 17.45 8.558L25.4411 16.55ZM18.5471 14.498L14.4971 18.548C14.4327 18.6103 14.3813 18.6848 14.3459 18.7672C14.3106 18.8495 14.292 18.9381 14.2913 19.0277C14.2905 19.1174 14.3077 19.2063 14.3416 19.2892C14.3756 19.3721 14.4258 19.4475 14.4892 19.5108C14.5526 19.5742 14.628 19.6242 14.711 19.6582C14.7939 19.6921 14.8828 19.7091 14.9724 19.7083C15.0621 19.7074 15.1506 19.6888 15.233 19.6534C15.3153 19.618 15.3898 19.5665 15.452 19.502L19.502 15.452C19.5683 15.3902 19.6215 15.3157 19.6584 15.2329C19.6953 15.1501 19.7151 15.0607 19.7167 14.9701C19.7183 14.8794 19.7017 14.7894 19.6677 14.7054C19.6338 14.6213 19.5832 14.545 19.5191 14.4809C19.455 14.4168 19.3787 14.3662 19.2946 14.3323C19.2106 14.2983 19.1206 14.2817 19.0299 14.2833C18.9393 14.2849 18.8499 14.3047 18.7671 14.3416C18.6843 14.3785 18.6098 14.4317 18.548 14.498M8.18 19.088L14.912 25.82C14.2004 25.94 13.4714 26 12.725 26H11.825C10.8105 26 9.83764 25.597 9.12032 24.8797C8.40299 24.1624 8 23.1895 8 22.175V21.275C8.0006 20.5292 8.0606 19.8002 8.18 19.088ZM18.9953 8.1953L25.8047 15.0047C25.9343 14.2631 25.9994 13.5032 26 12.725V11.825C26 10.8105 25.597 9.83764 24.8797 9.12032C24.1624 8.40299 23.1895 8 22.175 8H21.275C20.4968 8.0006 19.7369 8.0657 18.9953 8.1953Z" fill="#8B8B8B"/>
</svg>
