<svg width="34" height="34" viewBox="0 0 34 34" fill="none" xmlns="http://www.w3.org/2000/svg">
<circle cx="17" cy="17" r="17" fill="#D9D9D9"/>
<path d="M15.7667 5.50131V16.255H5.00391C5.08495 14.8498 5.42875 13.4386 6.02287 12.1646C6.06208 12.081 6.25359 11.6298 6.27843 11.6115C6.29411 11.5997 6.44901 11.6774 6.57124 11.6402C6.68562 11.6063 6.82157 11.4215 6.94575 11.3725C7.05033 11.3568 7.29608 11.748 7.54641 11.635C7.87517 11.4868 7.55817 11.0584 7.60196 10.9089C7.63399 10.7998 8.04903 10.6901 8.02615 10.4198C7.9902 9.99334 7.24575 10.3734 7.31242 10.0286C7.32549 9.962 8.06994 9.11113 8.18236 8.99359L9.52943 7.79728C9.56472 8.00755 9.27256 8.30271 9.49087 8.48359C9.79937 8.73892 9.99087 8.30924 10.1732 8.29422C10.3222 8.28181 10.5758 8.73435 10.853 8.48424C11.0634 8.29422 10.7961 7.96967 10.8321 7.83058C10.8739 7.66668 11.5994 7.43355 11.0582 7.10052L10.6798 7.01563C12.2438 6.16019 13.9687 5.58358 15.7674 5.5L15.7667 5.50131ZM13.651 6.58987C13.5726 6.51412 13.4288 6.51869 13.3327 6.56375C13.138 6.65452 13.17 6.98298 13.0778 7.04371C12.9595 7.12207 12.7144 6.99082 12.5118 7.16256C12.1602 7.46033 12.7987 7.71239 12.8223 7.82993C12.8523 7.98273 12.4451 8.47771 12.9281 8.55999C13.1549 8.59852 13.304 8.30858 13.4504 8.29618C13.5968 8.28377 13.8216 8.70757 14.0994 8.50579C14.3772 8.30401 14.0693 7.98665 14.1092 7.83254C14.1491 7.67843 14.785 7.47665 14.4216 7.1619C14.2223 6.98951 13.9726 7.12142 13.8563 7.04306C13.7961 7.00257 13.7282 6.66431 13.6504 6.58922L13.651 6.58987ZM10.5889 10.186C10.5092 10.0188 10.4222 9.59566 10.1726 9.61786C9.8863 9.64398 9.89349 10.1096 9.80002 10.1716C9.66276 10.263 9.38172 10.1063 9.20851 10.265C8.94773 10.5027 9.3876 10.7639 9.54708 10.9082C9.22877 11.6213 9.60067 11.9067 10.1739 11.3738C10.287 11.3568 10.6602 11.8975 10.8765 11.5416C11.0223 11.302 10.7883 11.0545 10.8301 10.9108C10.8621 10.8018 11.2772 10.6921 11.2543 10.4217C11.2275 10.1063 10.7941 10.2134 10.5876 10.186H10.5889ZM13.8667 10.186C13.787 10.0188 13.7 9.59566 13.4504 9.61786C13.1641 9.64398 13.1713 10.1096 13.0778 10.1716C12.917 10.2787 12.451 10.0332 12.4138 10.4335C12.3961 10.6183 12.7092 10.7887 12.8255 10.9082C12.5072 11.6213 12.8791 11.9067 13.4523 11.3738C13.5654 11.3568 13.9386 11.8975 14.155 11.5416C14.3007 11.302 14.0667 11.0545 14.1085 10.9108C14.1406 10.8018 14.5556 10.6921 14.5327 10.4217C14.5059 10.1063 14.0726 10.2134 13.8661 10.186H13.8667ZM6.77908 12.7503C6.66862 12.8444 6.63529 13.1604 6.57189 13.2022C5.20521 13.3237 6.28496 13.8285 6.31633 13.9878C6.34771 14.1471 6.02548 14.4403 6.27843 14.6637C6.53137 14.887 6.84183 14.4331 6.97712 14.4534C7.12614 14.4756 7.25948 14.7858 7.50066 14.7192C7.91046 14.6055 7.56209 14.1243 7.60262 13.9891C7.63922 13.8657 8.24511 13.645 7.94184 13.3439C7.75752 13.1611 7.48236 13.2773 7.35164 13.2003C7.26667 13.15 7.13399 12.4487 6.77974 12.7497L6.77908 12.7503ZM10.0079 12.7503C9.89741 12.8444 9.86407 13.1604 9.80067 13.2022C8.434 13.3237 9.51374 13.8285 9.54512 13.9878C9.57649 14.1471 9.25426 14.4403 9.50721 14.6637C9.76015 14.887 10.0706 14.4331 10.2059 14.4534C10.3549 14.4756 10.4883 14.7858 10.7294 14.7192C11.1392 14.6055 10.7909 14.1243 10.8314 13.9891C10.868 13.8657 11.4739 13.645 11.1706 13.3439C10.9863 13.1611 10.7111 13.2773 10.5804 13.2003C10.4954 13.15 10.3628 12.4487 10.0085 12.7497L10.0079 12.7503ZM13.2857 12.7503C13.1752 12.8444 13.1419 13.1604 13.0785 13.2022C11.7118 13.3237 12.7915 13.8285 12.8229 13.9878C12.8543 14.1471 12.5321 14.4403 12.785 14.6637C13.038 14.887 13.3484 14.4331 13.4837 14.4534C13.6327 14.4756 13.7661 14.7858 14.0072 14.7192C14.417 14.6055 14.0687 14.1243 14.1092 13.9891C14.1458 13.8657 14.7517 13.645 14.4484 13.3439C14.2641 13.1611 13.9889 13.2773 13.8582 13.2003C13.7733 13.15 13.6406 12.4487 13.2863 12.7497L13.2857 12.7503Z" fill="#8B8B8B"/>
<path d="M27.9973 17.7222C28.0358 18.0284 27.6548 20.2807 27.5273 20.3159H5.47292C5.34547 20.2807 4.96246 18.0297 5.00299 17.7222H27.9973Z" fill="#8B8B8B"/>
<path d="M26.9696 21.7791C27.0409 21.843 26.1664 23.2816 26.0605 23.4364C25.9546 23.5911 25.5383 24.1978 25.4324 24.2755C25.3703 24.3212 25.3108 24.3284 25.2356 24.3238L7.67016 24.3199C7.61068 24.3199 7.58388 24.2833 7.54532 24.2494C7.37473 24.0979 7.00479 23.5383 6.86034 23.3202C6.54139 22.8376 6.24727 22.3158 6.03027 21.7791H26.9696Z" fill="#8B8B8B"/>
<path d="M23.8879 25.7871C23.7245 25.9863 23.501 26.143 23.2957 26.2951C19.1251 29.3884 13.0205 29.2343 9.11328 25.7871H23.8886H23.8879Z" fill="#8B8B8B"/>
<path d="M27.5573 13.6648C27.7769 14.5111 27.9593 15.3763 27.9979 16.2553H17.2344V13.6648H27.5573Z" fill="#8B8B8B"/>
<path d="M26.9704 12.1979H17.2344V9.60742H25.3312C26.0011 10.3812 26.575 11.2523 26.9704 12.1979Z" fill="#8B8B8B"/>
<path d="M23.839 8.14092H17.2344V5.50146C19.6416 5.64643 22.0298 6.55215 23.839 8.14092Z" fill="#8B8B8B"/>
</svg>
